<svg xmlns="http://www.w3.org/2000/svg" width="157.333" height="353.333" preserveAspectRatio="xMidYMid meet" version="1.0" viewBox="0 0 118 265"><metadata>Created by potrace 1.16, written by Peter Selinger 2001-2019</metadata><g fill="#59C0E6" stroke="none"><path d="M1105 2478 c-39 -95 -92 -205 -119 -247 -80 -122 -238 -273 -396 -376 -214 -140 -352 -290 -440 -479 -62 -132 -79 -222 -100 -528 -7 -107 -16 -163 -31 -205 l-22 -57 90 -86 c226 -214 520 -370 858 -455 72 -18 154 -36 183 -40 l52 -7 0 1326 c0 729 -1 1326 -2 1326 -2 0 -34 -77 -73 -172z" transform="translate(0.000000,265.000000) scale(0.100000,-0.100000)"/></g></svg>